<svg width="356" height="88" viewBox="0 0 356 88" fill="none" xmlns="http://www.w3.org/2000/svg">
<path d="M101.44 39V33.84H111.08V63H105.32V39H101.44ZM116.612 48.04C116.612 43.4267 117.439 39.8133 119.092 37.2C120.772 34.5867 123.546 33.28 127.412 33.28C131.279 33.28 134.039 34.5867 135.692 37.2C137.372 39.8133 138.212 43.4267 138.212 48.04C138.212 52.68 137.372 56.32 135.692 58.96C134.039 61.6 131.279 62.92 127.412 62.92C123.546 62.92 120.772 61.6 119.092 58.96C117.439 56.32 116.612 52.68 116.612 48.04ZM132.692 48.04C132.692 46.0667 132.559 44.4133 132.292 43.08C132.052 41.72 131.546 40.6133 130.772 39.76C130.026 38.9067 128.906 38.48 127.412 38.48C125.919 38.48 124.786 38.9067 124.012 39.76C123.266 40.6133 122.759 41.72 122.492 43.08C122.252 44.4133 122.132 46.0667 122.132 48.04C122.132 50.0667 122.252 51.7733 122.492 53.16C122.732 54.52 123.239 55.6267 124.012 56.48C124.786 57.3067 125.919 57.72 127.412 57.72C128.906 57.72 130.039 57.3067 130.812 56.48C131.586 55.6267 132.092 54.52 132.332 53.16C132.572 51.7733 132.692 50.0667 132.692 48.04ZM142.472 48.04C142.472 43.4267 143.298 39.8133 144.952 37.2C146.632 34.5867 149.405 33.28 153.272 33.28C157.138 33.28 159.898 34.5867 161.552 37.2C163.232 39.8133 164.072 43.4267 164.072 48.04C164.072 52.68 163.232 56.32 161.552 58.96C159.898 61.6 157.138 62.92 153.272 62.92C149.405 62.92 146.632 61.6 144.952 58.96C143.298 56.32 142.472 52.68 142.472 48.04ZM158.552 48.04C158.552 46.0667 158.418 44.4133 158.152 43.08C157.912 41.72 157.405 40.6133 156.632 39.76C155.885 38.9067 154.765 38.48 153.272 38.48C151.778 38.48 150.645 38.9067 149.872 39.76C149.125 40.6133 148.618 41.72 148.352 43.08C148.112 44.4133 147.992 46.0667 147.992 48.04C147.992 50.0667 148.112 51.7733 148.352 53.16C148.592 54.52 149.098 55.6267 149.872 56.48C150.645 57.3067 151.778 57.72 153.272 57.72C154.765 57.72 155.898 57.3067 156.672 56.48C157.445 55.6267 157.952 54.52 158.192 53.16C158.432 51.7733 158.552 50.0667 158.552 48.04ZM168.331 48.04C168.331 43.4267 169.158 39.8133 170.811 37.2C172.491 34.5867 175.264 33.28 179.131 33.28C182.998 33.28 185.758 34.5867 187.411 37.2C189.091 39.8133 189.931 43.4267 189.931 48.04C189.931 52.68 189.091 56.32 187.411 58.96C185.758 61.6 182.998 62.92 179.131 62.92C175.264 62.92 172.491 61.6 170.811 58.96C169.158 56.32 168.331 52.68 168.331 48.04ZM184.411 48.04C184.411 46.0667 184.278 44.4133 184.011 43.08C183.771 41.72 183.264 40.6133 182.491 39.76C181.744 38.9067 180.624 38.48 179.131 38.48C177.638 38.48 176.504 38.9067 175.731 39.76C174.984 40.6133 174.478 41.72 174.211 43.08C173.971 44.4133 173.851 46.0667 173.851 48.04C173.851 50.0667 173.971 51.7733 174.211 53.16C174.451 54.52 174.958 55.6267 175.731 56.48C176.504 57.3067 177.638 57.72 179.131 57.72C180.624 57.72 181.758 57.3067 182.531 56.48C183.304 55.6267 183.811 54.52 184.051 53.16C184.291 51.7733 184.411 50.0667 184.411 48.04ZM224.722 43.72C224.722 45.2133 224.362 46.6133 223.642 47.92C222.948 49.2267 221.842 50.28 220.322 51.08C218.828 51.88 216.935 52.28 214.642 52.28H209.962V63H204.362V35.08H214.642C216.802 35.08 218.642 35.4533 220.162 36.2C221.682 36.9467 222.815 37.9733 223.562 39.28C224.335 40.5867 224.722 42.0667 224.722 43.72ZM214.402 47.76C215.948 47.76 217.095 47.4133 217.842 46.72C218.588 46 218.962 45 218.962 43.72C218.962 41 217.442 39.64 214.402 39.64H209.962V47.76H214.402ZM238.538 63.36C236.404 63.36 234.484 62.8933 232.778 61.96C231.071 61 229.724 59.6533 228.738 57.92C227.778 56.1867 227.298 54.1867 227.298 51.92C227.298 49.6533 227.791 47.6533 228.778 45.92C229.791 44.1867 231.164 42.8533 232.898 41.92C234.631 40.96 236.564 40.48 238.698 40.48C240.831 40.48 242.764 40.96 244.498 41.92C246.231 42.8533 247.591 44.1867 248.578 45.92C249.591 47.6533 250.098 49.6533 250.098 51.92C250.098 54.1867 249.578 56.1867 248.537 57.92C247.524 59.6533 246.138 61 244.378 61.96C242.644 62.8933 240.698 63.36 238.538 63.36ZM238.538 58.48C239.551 58.48 240.498 58.24 241.378 57.76C242.284 57.2533 243.004 56.5067 243.538 55.52C244.071 54.5333 244.338 53.3333 244.338 51.92C244.338 49.8133 243.778 48.2 242.658 47.08C241.564 45.9333 240.218 45.36 238.618 45.36C237.018 45.36 235.671 45.9333 234.578 47.08C233.511 48.2 232.978 49.8133 232.978 51.92C232.978 54.0267 233.498 55.6533 234.538 56.8C235.604 57.92 236.938 58.48 238.538 58.48ZM259.805 33.4V63H254.205V33.4H259.805ZM268.178 38.2C267.191 38.2 266.365 37.8933 265.698 37.28C265.058 36.64 264.738 35.8533 264.738 34.92C264.738 33.9867 265.058 33.2133 265.698 32.6C266.365 31.96 267.191 31.64 268.178 31.64C269.165 31.64 269.978 31.96 270.618 32.6C271.285 33.2133 271.618 33.9867 271.618 34.92C271.618 35.8533 271.285 36.64 270.618 37.28C269.978 37.8933 269.165 38.2 268.178 38.2ZM270.938 40.84V63H265.338V40.84H270.938ZM282.071 44.08C282.791 43.0133 283.778 42.1467 285.031 41.48C286.311 40.8133 287.764 40.48 289.391 40.48C291.284 40.48 292.991 40.9467 294.511 41.88C296.058 42.8133 297.271 44.1467 298.151 45.88C299.058 47.5867 299.511 49.5733 299.511 51.84C299.511 54.1067 299.058 56.12 298.151 57.88C297.271 59.6133 296.058 60.96 294.511 61.92C292.991 62.88 291.284 63.36 289.391 63.36C287.738 63.36 286.284 63.04 285.031 62.4C283.804 61.7333 282.818 60.88 282.071 59.84V63H276.471V33.4H282.071V44.08ZM293.791 51.84C293.791 50.5067 293.511 49.36 292.951 48.4C292.418 47.4133 291.698 46.6667 290.791 46.16C289.911 45.6533 288.951 45.4 287.911 45.4C286.898 45.4 285.938 45.6667 285.031 46.2C284.151 46.7067 283.431 47.4533 282.871 48.44C282.338 49.4267 282.071 50.5867 282.071 51.92C282.071 53.2533 282.338 54.4133 282.871 55.4C283.431 56.3867 284.151 57.1467 285.031 57.68C285.938 58.1867 286.898 58.44 287.911 58.44C288.951 58.44 289.911 58.1733 290.791 57.64C291.698 57.1067 292.418 56.3467 292.951 55.36C293.511 54.3733 293.791 53.2 293.791 51.84ZM302.14 51.84C302.14 49.6 302.58 47.6133 303.46 45.88C304.367 44.1467 305.58 42.8133 307.1 41.88C308.647 40.9467 310.367 40.48 312.26 40.48C313.914 40.48 315.354 40.8133 316.58 41.48C317.834 42.1467 318.834 42.9867 319.58 44V40.84H325.22V63H319.58V59.76C318.86 60.8 317.86 61.6667 316.58 62.36C315.327 63.0267 313.874 63.36 312.22 63.36C310.354 63.36 308.647 62.88 307.1 61.92C305.58 60.96 304.367 59.6133 303.46 57.88C302.58 56.12 302.14 54.1067 302.14 51.84ZM319.58 51.92C319.58 50.56 319.314 49.4 318.78 48.44C318.247 47.4533 317.527 46.7067 316.62 46.2C315.714 45.6667 314.74 45.4 313.7 45.4C312.66 45.4 311.7 45.6533 310.82 46.16C309.94 46.6667 309.22 47.4133 308.66 48.4C308.127 49.36 307.86 50.5067 307.86 51.84C307.86 53.1733 308.127 54.3467 308.66 55.36C309.22 56.3467 309.94 57.1067 310.82 57.64C311.727 58.1733 312.687 58.44 313.7 58.44C314.74 58.44 315.714 58.1867 316.62 57.68C317.527 57.1467 318.247 56.4 318.78 55.44C319.314 54.4533 319.58 53.28 319.58 51.92ZM339.37 40.48C341.023 40.48 342.476 40.8133 343.73 41.48C344.983 42.12 345.97 42.96 346.69 44V40.84H352.33V63.16C352.33 65.2133 351.916 67.04 351.09 68.64C350.263 70.2667 349.023 71.5467 347.37 72.48C345.716 73.44 343.716 73.92 341.37 73.92C338.223 73.92 335.636 73.1867 333.61 71.72C331.61 70.2533 330.476 68.2533 330.21 65.72H335.77C336.063 66.7333 336.69 67.5333 337.65 68.12C338.636 68.7333 339.823 69.04 341.21 69.04C342.836 69.04 344.156 68.5467 345.17 67.56C346.183 66.6 346.69 65.1333 346.69 63.16V59.72C345.97 60.76 344.97 61.6267 343.69 62.32C342.436 63.0133 340.996 63.36 339.37 63.36C337.503 63.36 335.796 62.88 334.25 61.92C332.703 60.96 331.476 59.6133 330.57 57.88C329.69 56.12 329.25 54.1067 329.25 51.84C329.25 49.6 329.69 47.6133 330.57 45.88C331.476 44.1467 332.69 42.8133 334.21 41.88C335.756 40.9467 337.476 40.48 339.37 40.48ZM346.69 51.92C346.69 50.56 346.423 49.4 345.89 48.44C345.356 47.4533 344.636 46.7067 343.73 46.2C342.823 45.6667 341.85 45.4 340.81 45.4C339.77 45.4 338.81 45.6533 337.93 46.16C337.05 46.6667 336.33 47.4133 335.77 48.4C335.236 49.36 334.97 50.5067 334.97 51.84C334.97 53.1733 335.236 54.3467 335.77 55.36C336.33 56.3467 337.05 57.1067 337.93 57.64C338.836 58.1733 339.796 58.44 340.81 58.44C341.85 58.44 342.823 58.1867 343.73 57.68C344.636 57.1467 345.356 56.4 345.89 55.44C346.423 54.4533 346.69 53.28 346.69 51.92Z" fill="url(#paint0_linear_1079_435)"/>
<path d="M19.0987 3.60905C19.0987 7.69931 19.2425 8.42112 20.5776 10.6897C21.81 12.8035 23.8846 14.5049 26.5137 15.5533C28.9785 16.5501 29.985 16.7219 33.8465 16.8251L36.9686 16.9282V18.9217V20.9153L34.4422 21.2075C28.4034 21.9293 23.0014 23.6479 17.928 26.4664C16.9831 26.982 16.2231 27.4632 16.2231 27.5319C16.2231 27.6178 18.4825 29.1646 21.2555 30.9691L26.2878 34.286V40.4042V46.5224L30.3958 50.0799L34.5038 53.6202V64.9973V76.3744L29.3688 80.774C24.9527 84.5549 24.2543 85.208 24.5419 85.3799C25.117 85.7408 29.8001 86.961 31.9363 87.3219C40.3782 88.7483 49.231 87.9062 56.7486 84.9674L58.741 84.194V73.9856V63.7771L52.579 55.3904L46.417 47.0208V41.1432V35.2656L50.9563 29.577C53.4417 26.4492 55.5162 23.8026 55.5778 23.6651C55.8038 23.1839 49.1077 21.5512 45.164 21.1387L43.1306 20.9325V18.9217V16.9282L46.2732 16.8251C50.1142 16.7219 51.1207 16.5501 53.5855 15.5533C56.2146 14.5049 58.2891 12.8035 59.5215 10.6897C60.8566 8.42112 61.0004 7.69931 61.0004 3.59186V-4.25386e-06L56.0297 0.0687396C51.2644 0.137483 50.9769 0.154669 49.4775 0.584318C45.8008 1.66703 43.1922 3.55749 41.4874 6.41036C40.8712 7.42433 40.255 9.16011 40.255 9.89911C40.255 10.1397 40.1728 10.3459 40.0496 10.3459C39.9469 10.3459 39.8442 10.1397 39.8442 9.89911C39.8442 9.16011 39.228 7.42433 38.6118 6.41036C37.174 4.02151 35.1611 2.35447 32.3471 1.2202C29.8823 0.223413 28.5266 0.0343677 23.4738 0.0343677H19.0987V3.60905Z" fill="#4D13F2"/>
<path d="M56.9336 31.3987L52.5791 36.7951V41.1775V45.5599L58.7 53.8607L64.8004 62.1616L64.9031 71.5107L65.0058 80.8771L67.5322 78.8491C73.4888 74.0371 77.0834 68.9328 78.9525 62.6084C79.8768 59.4977 80 58.5697 80 54.256C79.9795 50.4236 79.9384 49.9767 79.4249 47.8972C77.2066 39.1839 71.4965 31.9143 62.8286 26.7929C62.0686 26.346 61.4319 25.9851 61.3702 25.9851C61.3292 25.9851 59.3368 28.4255 56.9336 31.3987Z" fill="#EC1EDD"/>
<path d="M9.62986 32.5502C5.31646 36.7264 2.13275 42.1572 0.715491 47.8114C-0.0239498 50.7158 -0.22935 55.9919 0.284151 58.9822C1.55763 66.3378 5.11106 72.4216 11.1909 77.6977C13.3271 79.5538 15.34 80.9974 17.2502 82.063L18.3799 82.6989L23.3506 78.5398L28.3418 74.3637V65.0145V55.6653L24.2338 52.1766L20.1258 48.6706L20.1053 42.7071V36.7264L15.8124 33.9251C13.4503 32.3955 11.4374 31.141 11.3141 31.141C11.2114 31.141 10.4515 31.7768 9.62986 32.5502Z" fill="#EA1EDD"/>
<defs>
<linearGradient id="paint0_linear_1079_435" x1="366.207" y1="79" x2="79.0345" y2="79" gradientUnits="userSpaceOnUse">
<stop stop-color="#F11EDC"/>
<stop offset="0.402778" stop-color="#CF1CDE"/>
<stop offset="0.692407" stop-color="#4C13F1"/>
</linearGradient>
</defs>
</svg>
