<?xml version="1.0" standalone="no"?>
<!DOCTYPE svg PUBLIC "-//W3C//DTD SVG 20010904//EN" "http://www.w3.org/TR/2001/REC-SVG-20010904/DTD/svg10.dtd">
<svg version="1.0" xmlns="http://www.w3.org/2000/svg" width="512.000000pt" height="512.000000pt" viewBox="0 0 512.000000 512.000000" preserveAspectRatio="xMidYMid meet">

  <g transform="translate(0.000000,512.000000) scale(0.100000,-0.100000)" stroke="none" fill="#ffff">
    <path d="M740 4464 c-115 -31 -216 -117 -272 -232 l-33 -67 -3 -1154 c-3
-1261 -5 -1206 54 -1307 31 -53 119 -136 173 -164 89 -45 147 -50 614 -50
l437 0 0 -210 0 -210 -118 0 c-76 0 -136 -5 -169 -15 -176 -52 -195 -314 -29
-391 l51 -24 1116 0 1115 0 55 28 c45 22 59 36 82 81 44 88 33 182 -30 252
-48 54 -105 69 -255 69 l-118 0 0 210 0 210 438 0 c466 0 524 5 612 50 55 28
131 100 169 158 64 102 62 40 59 1313 l-3 1154 -33 67 c-37 76 -105 151 -172
191 -103 60 2 57 -1925 56 -1516 0 -1768 -2 -1815 -15z m3530 -1479 l0 -1065
-1710 0 -1710 0 0 1065 0 1065 1710 0 1710 0 0 -1065z m-1280 -1705 l0 -210
-430 0 -430 0 0 210 0 210 430 0 430 0 0 -210z" />
    <path d="M1862 3621 c-54 -14 -108 -56 -131 -103 -21 -43 -21 -55 -21 -532 0
-459 1 -489 19 -524 39 -75 101 -112 191 -112 90 0 152 37 191 112 18 35 19
65 19 526 l0 489 -23 44 c-41 78 -152 123 -245 100z" />
    <path d="M3117 3185 c-50 -17 -85 -50 -108 -100 -17 -36 -19 -69 -19 -313 0
-249 2 -276 19 -310 39 -75 102 -112 191 -112 91 0 154 38 194 117 14 27 16
73 16 305 0 243 -2 277 -19 313 -43 97 -163 140 -274 100z" />
    <path d="M2490 2978 c-50 -14 -97 -53 -122 -101 -21 -38 -23 -56 -23 -207 0
-154 2 -168 24 -213 28 -57 77 -93 144 -106 102 -19 198 23 238 106 22 45 24
59 24 213 0 151 -2 169 -23 207 -48 91 -154 132 -262 101z" />
  </g>
</svg>