<svg width="463" height="78" viewBox="0 0 463 78" fill="none" xmlns="http://www.w3.org/2000/svg">
<g clip-path="url(#clip0_1036_466)">
<path d="M23.8905 13.8633C19.0615 13.028 13.7743 16.4921 11.7338 20.1094C11.0101 21.3924 11.0826 23.1895 10.3077 24.3426C9.83893 25.0401 8.47698 25.4119 7.73425 25.8597C6.29958 26.7249 5.06086 27.7531 3.96931 28.9453C-1.2355 34.6305 -1.35807 42.9358 3.63166 48.75C8.78577 54.7557 15.9669 54.9961 23.7186 54.9961H37.1249H60.1561C64.0005 54.9961 68.0177 55.2942 71.8436 54.9702C84.1231 53.9303 91.4951 41.9323 86.3999 32.1445C85.2415 29.9193 83.4311 27.9677 81.2968 26.4262C80.341 25.7357 78.7212 25.3026 77.9629 24.4679C77.5085 23.9675 77.719 23.1445 77.6384 22.5469C77.4285 20.9922 77.0788 19.4784 76.5832 17.9766C75.2794 14.0257 72.7594 10.449 69.58 7.47085C59.3487 -2.11337 41.6538 -2.36349 30.5936 6.07389C28.0372 8.0241 24.8542 10.904 23.8905 13.8633Z" fill="#E4F0F9"/>
<path d="M19.9375 35.0391L24.2344 37.3242C29.287 30.6869 36.5087 27.5526 45.375 27.5742V27.4219H44V23.0039H46.0625C44.2939 22.3461 40.7048 23.0117 38.8438 23.3391C33.1305 24.3439 28.0204 26.6502 23.8906 30.3164C22.4314 31.6118 20.5779 33.2578 19.9375 35.0391Z" fill="#EB1DDC"/>
<path d="M44 23.0039V27.4219C52.2172 27.4822 59.245 31.3856 63.7656 37.3242L68.0625 35.0391C67.3776 33.134 65.3269 31.3892 63.7656 30.0119C58.5002 25.3669 51.3564 23.0039 44 23.0039Z" fill="#4E1BE0"/>
<path d="M47.0939 23.0039V23.1562H47.7814L47.0939 23.0039ZM48.297 23.1562V23.3086H48.8126L48.297 23.1562ZM49.3282 23.3086V23.4609H49.8439L49.3282 23.3086ZM50.3022 23.5117L50.4167 23.5626L50.3022 23.5117ZM50.9897 23.664L51.1042 23.7149L50.9897 23.664ZM51.6772 23.8164L51.7917 23.8672L51.6772 23.8164ZM52.2501 23.918L52.422 24.0703L52.2501 23.918ZM52.7657 24.0703L52.9376 24.2227L52.7657 24.0703ZM53.2814 24.2227L53.4532 24.375L53.2814 24.2227ZM53.797 24.375L53.9689 24.5273L53.797 24.375ZM54.2554 24.5781L54.3698 24.629L54.2554 24.5781ZM54.6564 24.6797L54.8282 24.832L54.6564 24.6797ZM55.1147 24.8828L55.2292 24.9336L55.1147 24.8828ZM55.5157 24.9844L55.6876 25.1367L55.5157 24.9844ZM55.8595 25.1367L56.0314 25.2891L55.8595 25.1367ZM56.2032 25.2891L56.3751 25.4414L56.2032 25.2891ZM56.547 25.4414L56.7189 25.5938L56.547 25.4414ZM56.8907 25.5938L57.0626 25.7461L56.8907 25.5938ZM57.2345 25.7461L57.4064 25.8984L57.2345 25.7461ZM57.5782 25.8984L57.7501 26.0508L57.5782 25.8984ZM57.922 26.0508L58.0939 26.2031L57.922 26.0508ZM58.0939 26.2031L58.2657 26.3555L58.0939 26.2031ZM58.4376 26.3555L58.6095 26.5078L58.4376 26.3555ZM58.7814 26.5078L58.9532 26.6602L58.7814 26.5078ZM58.9532 26.6602L59.1251 26.8125L58.9532 26.6602ZM59.297 26.8125L59.4689 26.9648L59.297 26.8125ZM59.8126 27.1172L59.9845 27.2695L59.8126 27.1172ZM59.9845 27.2695L60.1564 27.4219L59.9845 27.2695ZM60.3282 27.4219L60.5001 27.5742L60.3282 27.4219ZM46.4064 27.5742V27.7266H47.0939L46.4064 27.5742ZM60.5001 27.5742L60.672 27.7266L60.5001 27.5742ZM47.7814 27.7266V27.8789H48.297L47.7814 27.7266ZM48.6407 27.8789V28.0312H49.1564L48.6407 27.8789ZM61.0157 27.8789L61.1876 28.0312L61.0157 27.8789ZM49.6147 28.082L49.7292 28.1329L49.6147 28.082ZM61.1876 28.0312L61.3595 28.1836L61.1876 28.0312ZM50.1876 28.1836L50.3595 28.3359L50.1876 28.1836ZM50.8179 28.3867L50.9323 28.4376L50.8179 28.3867ZM61.7032 28.3359L61.8751 28.4883L61.7032 28.3359ZM51.3335 28.539L51.448 28.5899L51.3335 28.539ZM61.8751 28.4883L62.047 28.6406L61.8751 28.4883ZM51.8491 28.6914L51.9636 28.7422L51.8491 28.6914ZM62.047 28.6406L62.2189 28.793L62.047 28.6406ZM52.2501 28.793L52.422 28.9453L52.2501 28.793ZM62.2189 28.793L62.3907 28.9453L62.2189 28.793ZM52.7657 28.9453L52.9376 29.0977L52.7657 28.9453ZM53.1095 29.0977L53.2814 29.25L53.1095 29.0977ZM53.4532 29.25L53.6251 29.4023L53.4532 29.25ZM62.9064 29.25L63.0782 29.4023L62.9064 29.25ZM53.9116 29.4531L54.0261 29.504L53.9116 29.4531ZM63.0782 29.4023L63.2501 29.5547L63.0782 29.4023ZM54.3126 29.5547L54.4845 29.707L54.3126 29.5547ZM63.2501 29.5547L63.422 29.707L63.2501 29.5547ZM54.4845 29.707L54.6564 29.8594L54.4845 29.707ZM63.422 29.707L63.5939 29.8594L63.422 29.707ZM54.8282 29.8594L55.0001 30.0117L54.8282 29.8594ZM63.5939 29.8594L63.7657 30.0117L63.5939 29.8594ZM55.172 30.0117L55.3439 30.1641L55.172 30.0117ZM63.7657 30.0117L63.9376 30.1641L63.7657 30.0117ZM55.5157 30.1641L55.6876 30.3164L55.5157 30.1641ZM63.9376 30.1641L64.1095 30.3164L63.9376 30.1641ZM55.8595 30.3164L56.0314 30.4688L55.8595 30.3164ZM64.1095 30.3164L64.2814 30.4688L64.1095 30.3164ZM56.0314 30.4688L56.2032 30.6211L56.0314 30.4688ZM64.2814 30.4688L64.4532 30.6211L64.2814 30.4688ZM56.3751 30.6211L56.547 30.7734L56.3751 30.6211ZM64.4532 30.6211L64.6251 30.7734L64.4532 30.6211ZM64.6251 30.7734L64.797 30.9258L64.6251 30.7734ZM56.8907 30.9258L57.0626 31.0781L56.8907 30.9258ZM64.797 30.9258L64.9689 31.0781L64.797 30.9258ZM57.0626 31.0781L57.2345 31.2305L57.0626 31.0781ZM57.4064 31.2305L57.5782 31.3828L57.4064 31.2305ZM57.5782 31.3828L57.7501 31.5352L57.5782 31.3828ZM58.0939 31.6875L58.2657 31.8398L58.0939 31.6875ZM65.4845 31.6875L65.6564 31.8398L65.4845 31.6875ZM58.2657 31.8398L58.4376 31.9922L58.2657 31.8398ZM65.6564 31.8398L65.8282 31.9922L65.6564 31.8398ZM33.172 42.0469C35.6582 38.1792 40.2837 36.628 45.0314 36.7148V36.5625H44.0001V32.1445H45.547C44.6905 31.8261 43.7012 32.1307 42.797 32.1441C38.7089 32.2047 34.5147 33.8799 31.6251 36.4108C30.8781 37.0649 28.7883 38.5335 28.8945 39.5935C28.9855 40.4998 32.2815 41.797 33.172 42.0469ZM65.8282 31.9922L66.0001 32.1445L65.8282 31.9922Z" fill="#EB1DDC"/>
<path d="M44 32.1445V36.5625C48.3161 36.7267 52.6699 38.6149 54.8281 42.0469C55.7186 41.797 59.0147 40.4998 59.1056 39.5935C59.2305 38.3458 56.4537 36.4059 55.5156 35.6941C52.2918 33.2484 48.1802 32.1445 44 32.1445Z" fill="#4E1BE0"/>
<path d="M46.4062 32.1445V32.2969H46.9219L46.4062 32.1445ZM47.5521 32.3476L47.6666 32.3985L47.5521 32.3476ZM58.9531 32.2969L59.125 32.4492L58.9531 32.2969ZM48.4115 32.4999L48.526 32.5508L48.4115 32.4999ZM59.125 32.4492L59.2969 32.6016L59.125 32.4492ZM66.1719 32.4492L66.3438 32.6016L66.1719 32.4492ZM48.9844 32.6016L49.1562 32.7539L48.9844 32.6016ZM59.2969 32.6016L59.4688 32.7539L59.2969 32.6016ZM66.3438 32.6016L66.5156 32.7539L66.3438 32.6016ZM49.6146 32.8046L49.7291 32.8555L49.6146 32.8046ZM59.4688 32.7539L59.6406 32.9062L59.4688 32.7539ZM66.5156 32.7539L66.6875 32.9062L66.5156 32.7539ZM50.0156 32.9062L50.1875 33.0586L50.0156 32.9062ZM59.6406 32.9062L59.8125 33.0586L59.6406 32.9062ZM50.5312 33.0586L50.7031 33.2109L50.5312 33.0586ZM66.6875 33.0586L66.8594 33.2109L66.6875 33.0586ZM50.875 33.2109L51.0469 33.3633L50.875 33.2109ZM66.8594 33.2109L67.0312 33.3633L66.8594 33.2109ZM51.3906 33.3633L51.5625 33.5156L51.3906 33.3633ZM51.7344 33.5156L51.9062 33.668L51.7344 33.5156ZM52.0781 33.668L52.25 33.8203L52.0781 33.668ZM60.5 33.668L60.6719 33.8203L60.5 33.668ZM67.2031 33.668L67.375 33.8203L67.2031 33.668ZM52.4219 33.8203L52.5938 33.9727L52.4219 33.8203ZM60.6719 33.8203L60.8438 33.9727L60.6719 33.8203ZM67.375 33.8203L67.5469 33.9727L67.375 33.8203ZM52.7656 33.9727L52.9375 34.125L52.7656 33.9727ZM60.8438 33.9727L61.0156 34.125L60.8438 33.9727ZM52.9375 34.125L53.1094 34.2773L52.9375 34.125ZM61.0156 34.125L61.1875 34.2773L61.0156 34.125ZM67.5469 34.125L67.7188 34.2773L67.5469 34.125ZM53.2812 34.2773L53.4531 34.4297L53.2812 34.2773ZM61.1875 34.2773L61.3594 34.4297L61.1875 34.2773ZM53.625 34.4297L53.7969 34.582L53.625 34.4297ZM61.3594 34.4297L61.5312 34.582L61.3594 34.4297ZM53.7969 34.582L53.9688 34.7344L53.7969 34.582ZM61.5312 34.582L61.7031 34.7344L61.5312 34.582ZM67.8906 34.582L68.0625 34.7344L67.8906 34.582ZM54.1406 34.7344L54.3125 34.8867L54.1406 34.7344ZM54.3125 34.8867L54.4844 35.0391L54.3125 34.8867ZM68.0625 34.8867L68.2344 35.0391L68.0625 34.8867ZM61.875 35.0391L62.0469 35.1914L61.875 35.0391ZM67.8906 35.0391L68.0625 35.1914L67.8906 35.0391ZM54.8281 35.1914L55 35.3438L54.8281 35.1914ZM62.0469 35.1914L62.2188 35.3438L62.0469 35.1914ZM67.5469 35.1914L67.7188 35.3438L67.5469 35.1914ZM55 35.3438L55.1719 35.4961L55 35.3438ZM62.2188 35.3438L62.3906 35.4961L62.2188 35.3438ZM67.375 35.3438L67.5469 35.4961L67.375 35.3438ZM67.0312 35.4961L67.2031 35.6484L67.0312 35.4961ZM55.5156 35.6484L55.6875 35.8008L55.5156 35.6484ZM66.6875 35.6484L66.8594 35.8008L66.6875 35.6484ZM55.6875 35.8008L55.8594 35.9531L55.6875 35.8008ZM62.5625 35.8008L62.7344 35.9531L62.5625 35.8008ZM66.5156 35.8008L66.6875 35.9531L66.5156 35.8008ZM55.8594 35.9531L56.0312 36.1055L55.8594 35.9531ZM62.7344 35.9531L62.9062 36.1055L62.7344 35.9531ZM66.1719 35.9531L66.3438 36.1055L66.1719 35.9531ZM56.0312 36.1055L56.2031 36.2578L56.0312 36.1055ZM56.2031 36.2578L56.375 36.4102L56.2031 36.2578ZM62.9062 36.2578L63.0781 36.4102L62.9062 36.2578ZM65.6562 36.2578L65.8281 36.4102L65.6562 36.2578ZM56.375 36.4102L56.5469 36.5625L56.375 36.4102ZM63.0781 36.4102L63.25 36.5625L63.0781 36.4102ZM65.3125 36.4102L65.4844 36.5625L65.3125 36.4102ZM56.5469 36.5625L56.7188 36.7148L56.5469 36.5625ZM45.8906 36.7148V36.8672H46.4062L45.8906 36.7148ZM56.7188 36.7148L56.8906 36.8672L56.7188 36.7148ZM63.25 36.7148L63.4219 36.8672L63.25 36.7148ZM64.7969 36.7148L64.9688 36.8672L64.7969 36.7148ZM46.8646 36.9179L46.9791 36.9688L46.8646 36.9179ZM56.8906 36.8672L57.0625 37.0195L56.8906 36.8672ZM63.4219 36.8672L63.5938 37.0195L63.4219 36.8672ZM64.4531 36.8672L64.625 37.0195L64.4531 36.8672ZM47.5521 37.0703L47.6666 37.1211L47.5521 37.0703ZM57.0625 37.0195L57.2344 37.1719L57.0625 37.0195ZM64.2812 37.0195L64.4531 37.1719L64.2812 37.0195ZM48.125 37.1719L48.2969 37.3242L48.125 37.1719ZM57.2344 37.1719L57.4062 37.3242L57.2344 37.1719ZM63.5938 37.1719L63.7656 37.3242L63.5938 37.1719ZM63.9375 37.1719L64.1094 37.3242L63.9375 37.1719ZM48.5834 37.3749L48.6979 37.4258L48.5834 37.3749ZM57.4062 37.3242L57.5781 37.4766L57.4062 37.3242ZM48.9844 37.4766L49.1562 37.6289L48.9844 37.4766ZM57.5781 37.4766L57.75 37.6289L57.5781 37.4766ZM49.3281 37.6289L49.5 37.7812L49.3281 37.6289ZM49.6719 37.7812L49.8438 37.9336L49.6719 37.7812ZM50.0156 37.9336L50.1875 38.0859L50.0156 37.9336ZM50.3594 38.0859L50.5312 38.2383L50.3594 38.0859ZM58.0938 38.0859L58.2656 38.2383L58.0938 38.0859ZM50.7031 38.2383L50.875 38.3906L50.7031 38.2383ZM58.2656 38.2383L58.4375 38.3906L58.2656 38.2383ZM50.875 38.3906L51.0469 38.543L50.875 38.3906ZM51.2188 38.543L51.3906 38.6953L51.2188 38.543ZM51.3906 38.6953L51.5625 38.8477L51.3906 38.6953ZM58.6094 38.6953L58.7812 38.8477L58.6094 38.6953ZM58.7812 38.8477L58.9531 39L58.7812 38.8477ZM51.9062 39L52.0781 39.1523L51.9062 39ZM52.0781 39.1523L52.25 39.3047L52.0781 39.1523ZM58.9531 39.1523L59.125 39.3047L58.9531 39.1523ZM52.25 39.3047L52.4219 39.457L52.25 39.3047ZM59.125 39.3047L59.2969 39.457L59.125 39.3047ZM52.4219 39.457L52.5938 39.6094L52.4219 39.457ZM52.5938 39.6094L52.7656 39.7617L52.5938 39.6094ZM59.2969 39.6094L59.4688 39.7617L59.2969 39.6094ZM59.125 39.7617L59.2969 39.9141L59.125 39.7617ZM58.9531 39.9141L59.125 40.0664L58.9531 39.9141ZM58.6094 40.0664L58.7812 40.2188L58.6094 40.0664ZM53.2812 40.2188L53.4531 40.3711L53.2812 40.2188ZM58.2656 40.2188L58.4375 40.3711L58.2656 40.2188ZM53.4531 40.3711L53.625 40.5234L53.4531 40.3711ZM58.0938 40.3711L58.2656 40.5234L58.0938 40.3711ZM53.625 40.5234L53.7969 40.6758L53.625 40.5234ZM57.75 40.5234L57.9219 40.6758L57.75 40.5234ZM53.7969 40.6758L53.9688 40.8281L53.7969 40.6758ZM57.4062 40.6758L57.5781 40.8281L57.4062 40.6758ZM53.9688 40.8281L54.1406 40.9805L53.9688 40.8281ZM57.2344 40.8281L57.4062 40.9805L57.2344 40.8281ZM56.8906 40.9805L57.0625 41.1328L56.8906 40.9805Z" fill="#EB1DDC"/>
<path d="M54.1406 41.1328L54.3125 41.2852L54.1406 41.1328ZM56.5469 41.1328L56.7188 41.2852L56.5469 41.1328Z" fill="#EB1DDC"/>
<path d="M43.9998 45.8555V41.4375H44.8592C43.198 40.8629 40.2994 41.9188 39.0154 42.8587C38.5777 43.1791 37.5461 43.861 37.7197 44.4562C37.9005 45.0753 39.3083 45.5736 39.8748 45.8847C40.3387 46.1396 40.8738 46.5514 41.4217 46.64C42.2127 46.7683 43.1661 45.9667 43.9998 45.8555ZM54.3123 41.2852L54.4842 41.4375L54.3123 41.2852ZM56.3748 41.2852L56.5467 41.4375L56.3748 41.2852Z" fill="#EB1DDC"/>
<path d="M44 41.4375V45.8555C44.8719 45.9351 45.7595 46.7727 46.5781 46.64C47.1261 46.5514 47.6611 46.1396 48.125 45.8847C48.6915 45.5736 50.0993 45.0753 50.2801 44.4562C50.4417 43.9024 49.5553 43.3005 49.1561 42.9891C47.7309 41.8776 45.8614 41.4421 44 41.4375Z" fill="#4E1BE0"/>
<path d="M45.375 41.4375V41.5898H45.8906L45.375 41.4375ZM56.0312 41.4375L56.2031 41.5898L56.0312 41.4375ZM46.349 41.6406L46.4635 41.6915L46.349 41.6406ZM55.6875 41.5898L55.8594 41.7422L55.6875 41.5898ZM46.75 41.7422L46.9219 41.8945L46.75 41.7422ZM54.6562 41.7422L54.8281 41.8945L54.6562 41.7422ZM55.5156 41.7422L55.6875 41.8945L55.5156 41.7422ZM47.2656 41.8945L47.4375 42.0469L47.2656 41.8945ZM55.1719 41.8945L55.3438 42.0469L55.1719 41.8945ZM47.6094 42.0469L47.7812 42.1992L47.6094 42.0469ZM47.9531 42.1992L48.125 42.3516L47.9531 42.1992ZM48.4688 42.5039L48.6406 42.6562L48.4688 42.5039ZM48.9844 42.8086L49.1562 42.9609L48.9844 42.8086ZM49.1562 42.9609L49.3281 43.1133L49.1562 42.9609ZM49.3281 43.1133L49.5 43.2656L49.3281 43.1133ZM49.5 43.2656L49.6719 43.418L49.5 43.2656ZM49.6719 43.418L49.8438 43.5703L49.6719 43.418ZM49.8438 43.5703L50.0156 43.7227L49.8438 43.5703ZM50.0156 43.7227L50.1875 43.875L50.0156 43.7227ZM50.3594 44.1797L50.5312 44.332L50.3594 44.1797ZM50.3594 44.4844L50.5312 44.6367L50.3594 44.4844ZM50.1875 44.6367L50.3594 44.7891L50.1875 44.6367ZM49.8438 44.7891L50.0156 44.9414L49.8438 44.7891ZM49.3281 45.0938L49.5 45.2461L49.3281 45.0938ZM48.9844 45.2461L49.1562 45.3984L48.9844 45.2461ZM48.8125 45.3984L48.9844 45.5508L48.8125 45.3984ZM48.4688 45.5508L48.6406 45.7031L48.4688 45.5508ZM44.3438 45.8555V46.0078H44.8594L44.3438 45.8555ZM47.9531 45.8555L48.125 46.0078L47.9531 45.8555ZM45.0312 46.0078L45.2031 46.1602L45.0312 46.0078ZM47.6094 46.0078L47.7812 46.1602L47.6094 46.0078ZM45.375 46.1602L45.5469 46.3125L45.375 46.1602ZM47.4375 46.1602L47.6094 46.3125L47.4375 46.1602ZM45.5469 46.3125L45.7188 46.4648L45.5469 46.3125ZM47.0938 46.3125L47.2656 46.4648L47.0938 46.3125ZM46.5781 46.6172L46.75 46.7695L46.5781 46.6172ZM46.1771 46.8203L46.2916 46.8711L46.1771 46.8203Z" fill="#EB1DDC"/>
<path d="M25.9531 54.9961V68.8594H20.4531C20.8065 70.4748 20.8065 71.8142 20.4531 73.4297H31.1094V54.9961H25.9531Z" fill="#E4F0F9"/>
<path d="M41.4219 54.9961V64.5938H46.5781V54.9961H41.4219Z" fill="#E4F0F9"/>
<path d="M56.8906 54.9961V73.4297H67.5469V68.8594H62.0469V54.9961H56.8906Z" fill="#E4F0F9"/>
<path d="M11.3438 64.3604C6.34814 65.19 3.85152 70.4491 6.0799 74.3438C7.70245 77.1796 11.317 78.5041 14.7813 77.9287C19.7609 77.1018 22.2452 71.8459 20.0447 67.9453C18.4364 65.0942 14.8025 63.7859 11.3438 64.3604ZM44.0001 78V64.2891C35.985 64.2938 33.1343 74.299 40.5626 77.4074C41.6952 77.8813 42.7648 77.9999 44.0001 78Z" fill="#EB1DDC"/>
<path d="M44 64.2891V78C45.1535 77.9979 46.2146 77.9252 47.2656 77.4624C54.543 74.2586 52.2816 64.3093 44 64.2891ZM73.2188 64.3604C68.2689 65.1824 65.7771 70.4476 67.9554 74.3437C69.5463 77.1891 73.2148 78.5003 76.6562 77.9287C81.7144 77.0887 84.221 71.6884 81.8297 67.793C80.1443 65.0477 76.6315 63.7935 73.2188 64.3604Z" fill="#4E1BE0"/>
<path d="M47.0938 64.7461L47.2656 64.8984L47.0938 64.7461ZM47.4375 64.8984L47.6094 65.0508L47.4375 64.8984ZM47.7812 65.0508L47.9531 65.2031L47.7812 65.0508ZM48.2969 65.3555L48.4688 65.5078L48.2969 65.3555ZM48.8125 65.6602L48.9844 65.8125L48.8125 65.6602ZM49.1562 65.9648L49.3281 66.1172L49.1562 65.9648ZM49.8438 66.5742L50.0156 66.7266L49.8438 66.5742ZM50.0156 66.7266L50.1875 66.8789L50.0156 66.7266ZM50.7031 67.6406L50.875 67.793L50.7031 67.6406ZM51.0469 68.25L51.2188 68.4023L51.0469 68.25ZM51.2188 68.707L51.3906 68.8594L51.2188 68.707ZM51.4479 69.1133L51.5053 69.2148L51.4479 69.1133ZM51.5625 69.7734L51.7344 69.9258L51.5625 69.7734ZM51.5625 72.3633L51.7344 72.5156L51.5625 72.3633ZM51.3906 73.125L51.5625 73.2773L51.3906 73.125ZM51.2188 73.4297L51.3906 73.582L51.2188 73.4297ZM51.0469 73.8867L51.2188 74.0391L51.0469 73.8867ZM50.875 74.1914L51.0469 74.3438L50.875 74.1914ZM50.7031 74.4961L50.875 74.6484L50.7031 74.4961ZM50.3594 74.9531L50.5312 75.1055L50.3594 74.9531ZM49.6719 75.7148L49.8438 75.8672L49.6719 75.7148ZM49.5 75.8672L49.6719 76.0195L49.5 75.8672ZM49.1562 76.1719L49.3281 76.3242L49.1562 76.1719ZM48.8125 76.4766L48.9844 76.6289L48.8125 76.4766ZM48.2969 76.7812L48.4688 76.9336L48.2969 76.7812ZM47.7812 77.0859L47.9531 77.2383L47.7812 77.0859ZM47.0938 77.3906L47.2656 77.543L47.0938 77.3906ZM45.375 77.8477L45.5469 78L45.375 77.8477Z" fill="#EB1DDC"/>
</g>
<path d="M116.36 27.08V55H110.76V27.08H116.36ZM134.173 32.52C136.813 32.52 138.946 33.36 140.573 35.04C142.199 36.6933 143.013 39.0133 143.013 42V55H137.413V42.76C137.413 41 136.973 39.6533 136.093 38.72C135.213 37.76 134.013 37.28 132.493 37.28C130.946 37.28 129.719 37.76 128.813 38.72C127.933 39.6533 127.493 41 127.493 42.76V55H121.893V32.84H127.493V35.6C128.239 34.64 129.186 33.8933 130.333 33.36C131.506 32.8 132.786 32.52 134.173 32.52ZM154.858 37.44V48.16C154.858 48.9067 155.031 49.4533 155.378 49.8C155.751 50.12 156.365 50.28 157.218 50.28H159.818V55H156.298C151.578 55 149.218 52.7067 149.218 48.12V37.44H146.578V32.84H149.218V27.36H154.858V32.84H159.818V37.44H154.858ZM184.446 43.44C184.446 44.24 184.393 44.96 184.286 45.6H168.086C168.219 47.2 168.779 48.4533 169.766 49.36C170.753 50.2667 171.966 50.72 173.406 50.72C175.486 50.72 176.966 49.8267 177.846 48.04H183.886C183.246 50.1733 182.019 51.9333 180.206 53.32C178.393 54.68 176.166 55.36 173.526 55.36C171.393 55.36 169.473 54.8933 167.766 53.96C166.086 53 164.766 51.6533 163.806 49.92C162.873 48.1867 162.406 46.1867 162.406 43.92C162.406 41.6267 162.873 39.6133 163.806 37.88C164.739 36.1467 166.046 34.8133 167.726 33.88C169.406 32.9467 171.339 32.48 173.526 32.48C175.633 32.48 177.513 32.9333 179.166 33.84C180.846 34.7467 182.139 36.04 183.046 37.72C183.979 39.3733 184.446 41.28 184.446 43.44ZM178.646 41.84C178.619 40.4 178.099 39.2533 177.086 38.4C176.073 37.52 174.833 37.08 173.366 37.08C171.979 37.08 170.806 37.5067 169.846 38.36C168.913 39.1867 168.339 40.3467 168.126 41.84H178.646ZM194.133 36.28C194.853 35.1067 195.787 34.1867 196.933 33.52C198.107 32.8533 199.44 32.52 200.933 32.52V38.4H199.453C197.693 38.4 196.36 38.8133 195.453 39.64C194.573 40.4667 194.133 41.9067 194.133 43.96V55H188.533V32.84H194.133V36.28ZM216.985 32.52C219.625 32.52 221.759 33.36 223.385 35.04C225.012 36.6933 225.825 39.0133 225.825 42V55H220.225V42.76C220.225 41 219.785 39.6533 218.905 38.72C218.025 37.76 216.825 37.28 215.305 37.28C213.759 37.28 212.532 37.76 211.625 38.72C210.745 39.6533 210.305 41 210.305 42.76V55H204.705V32.84H210.305V35.6C211.052 34.64 211.999 33.8933 213.145 33.36C214.319 32.8 215.599 32.52 216.985 32.52ZM251.751 43.44C251.751 44.24 251.697 44.96 251.591 45.6H235.391C235.524 47.2 236.084 48.4533 237.071 49.36C238.057 50.2667 239.271 50.72 240.711 50.72C242.791 50.72 244.271 49.8267 245.151 48.04H251.191C250.551 50.1733 249.324 51.9333 247.511 53.32C245.697 54.68 243.471 55.36 240.831 55.36C238.697 55.36 236.777 54.8933 235.071 53.96C233.391 53 232.071 51.6533 231.111 49.92C230.177 48.1867 229.711 46.1867 229.711 43.92C229.711 41.6267 230.177 39.6133 231.111 37.88C232.044 36.1467 233.351 34.8133 235.031 33.88C236.711 32.9467 238.644 32.48 240.831 32.48C242.937 32.48 244.817 32.9333 246.471 33.84C248.151 34.7467 249.444 36.04 250.351 37.72C251.284 39.3733 251.751 41.28 251.751 43.44ZM245.951 41.84C245.924 40.4 245.404 39.2533 244.391 38.4C243.377 37.52 242.137 37.08 240.671 37.08C239.284 37.08 238.111 37.5067 237.151 38.36C236.217 39.1867 235.644 40.3467 235.431 41.84H245.951ZM262.358 37.44V48.16C262.358 48.9067 262.531 49.4533 262.878 49.8C263.251 50.12 263.865 50.28 264.718 50.28H267.318V55H263.798C259.078 55 256.718 52.7067 256.718 48.12V37.44H254.078V32.84H256.718V27.36H262.358V32.84H267.318V37.44H262.358ZM290.717 55.36C288.584 55.36 286.664 54.8933 284.957 53.96C283.251 53 281.904 51.6533 280.917 49.92C279.957 48.1867 279.477 46.1867 279.477 43.92C279.477 41.6533 279.971 39.6533 280.957 37.92C281.971 36.1867 283.344 34.8533 285.077 33.92C286.811 32.96 288.744 32.48 290.877 32.48C293.011 32.48 294.944 32.96 296.677 33.92C298.411 34.8533 299.771 36.1867 300.757 37.92C301.771 39.6533 302.277 41.6533 302.277 43.92C302.277 46.1867 301.757 48.1867 300.717 49.92C299.704 51.6533 298.317 53 296.557 53.96C294.824 54.8933 292.877 55.36 290.717 55.36ZM290.717 50.48C291.731 50.48 292.677 50.24 293.557 49.76C294.464 49.2533 295.184 48.5067 295.717 47.52C296.251 46.5333 296.517 45.3333 296.517 43.92C296.517 41.8133 295.957 40.2 294.837 39.08C293.744 37.9333 292.397 37.36 290.797 37.36C289.197 37.36 287.851 37.9333 286.757 39.08C285.691 40.2 285.157 41.8133 285.157 43.92C285.157 46.0267 285.677 47.6533 286.717 48.8C287.784 49.92 289.117 50.48 290.717 50.48ZM316.545 37.44H312.665V55H306.985V37.44H304.465V32.84H306.985V31.72C306.985 29 307.758 27 309.305 25.72C310.852 24.44 313.185 23.84 316.305 23.92V28.64C314.945 28.6133 313.998 28.84 313.465 29.32C312.932 29.8 312.665 30.6667 312.665 31.92V32.84H316.545V37.44ZM348.705 27.08V31.6H341.265V55H335.665V31.6H328.225V27.08H348.705ZM365.271 32.52C366.951 32.52 368.445 32.8933 369.751 33.64C371.058 34.36 372.071 35.44 372.791 36.88C373.538 38.2933 373.911 40 373.911 42V55H368.311V42.76C368.311 41 367.871 39.6533 366.991 38.72C366.111 37.76 364.911 37.28 363.391 37.28C361.845 37.28 360.618 37.76 359.711 38.72C358.831 39.6533 358.391 41 358.391 42.76V55H352.791V25.4H358.391V35.6C359.111 34.64 360.071 33.8933 361.271 33.36C362.471 32.8 363.805 32.52 365.271 32.52ZM382.077 30.2C381.09 30.2 380.263 29.8933 379.597 29.28C378.957 28.64 378.637 27.8533 378.637 26.92C378.637 25.9867 378.957 25.2133 379.597 24.6C380.263 23.96 381.09 23.64 382.077 23.64C383.063 23.64 383.877 23.96 384.517 24.6C385.183 25.2133 385.517 25.9867 385.517 26.92C385.517 27.8533 385.183 28.64 384.517 29.28C383.877 29.8933 383.063 30.2 382.077 30.2ZM384.837 32.84V55H379.237V32.84H384.837ZM402.649 32.52C405.289 32.52 407.423 33.36 409.049 35.04C410.676 36.6933 411.489 39.0133 411.489 42V55H405.889V42.76C405.889 41 405.449 39.6533 404.569 38.72C403.689 37.76 402.489 37.28 400.969 37.28C399.423 37.28 398.196 37.76 397.289 38.72C396.409 39.6533 395.969 41 395.969 42.76V55H390.369V32.84H395.969V35.6C396.716 34.64 397.663 33.8933 398.809 33.36C399.983 32.8 401.263 32.52 402.649 32.52ZM425.495 32.48C427.148 32.48 428.601 32.8133 429.855 33.48C431.108 34.12 432.095 34.96 432.815 36V32.84H438.455V55.16C438.455 57.2133 438.041 59.04 437.215 60.64C436.388 62.2667 435.148 63.5467 433.495 64.48C431.841 65.44 429.841 65.92 427.495 65.92C424.348 65.92 421.761 65.1867 419.735 63.72C417.735 62.2533 416.601 60.2533 416.335 57.72H421.895C422.188 58.7333 422.815 59.5333 423.775 60.12C424.761 60.7333 425.948 61.04 427.335 61.04C428.961 61.04 430.281 60.5467 431.295 59.56C432.308 58.6 432.815 57.1333 432.815 55.16V51.72C432.095 52.76 431.095 53.6267 429.815 54.32C428.561 55.0133 427.121 55.36 425.495 55.36C423.628 55.36 421.921 54.88 420.375 53.92C418.828 52.96 417.601 51.6133 416.695 49.88C415.815 48.12 415.375 46.1067 415.375 43.84C415.375 41.6 415.815 39.6133 416.695 37.88C417.601 36.1467 418.815 34.8133 420.335 33.88C421.881 32.9467 423.601 32.48 425.495 32.48ZM432.815 43.92C432.815 42.56 432.548 41.4 432.015 40.44C431.481 39.4533 430.761 38.7067 429.855 38.2C428.948 37.6667 427.975 37.4 426.935 37.4C425.895 37.4 424.935 37.6533 424.055 38.16C423.175 38.6667 422.455 39.4133 421.895 40.4C421.361 41.36 421.095 42.5067 421.095 43.84C421.095 45.1733 421.361 46.3467 421.895 47.36C422.455 48.3467 423.175 49.1067 424.055 49.64C424.961 50.1733 425.921 50.44 426.935 50.44C427.975 50.44 428.948 50.1867 429.855 49.68C430.761 49.1467 431.481 48.4 432.015 47.44C432.548 46.4533 432.815 45.28 432.815 43.92ZM452.404 55.36C450.591 55.36 448.964 55.04 447.524 54.4C446.084 53.7333 444.937 52.84 444.084 51.72C443.257 50.6 442.804 49.36 442.724 48H448.364C448.471 48.8533 448.884 49.56 449.604 50.12C450.351 50.68 451.271 50.96 452.364 50.96C453.431 50.96 454.257 50.7467 454.844 50.32C455.457 49.8933 455.764 49.3467 455.764 48.68C455.764 47.96 455.391 47.4267 454.644 47.08C453.924 46.7067 452.764 46.3067 451.164 45.88C449.511 45.48 448.151 45.0667 447.084 44.64C446.044 44.2133 445.137 43.56 444.364 42.68C443.617 41.8 443.244 40.6133 443.244 39.12C443.244 37.8933 443.591 36.7733 444.284 35.76C445.004 34.7467 446.017 33.9467 447.324 33.36C448.657 32.7733 450.217 32.48 452.004 32.48C454.644 32.48 456.751 33.1467 458.324 34.48C459.897 35.7867 460.764 37.56 460.924 39.8H455.564C455.484 38.92 455.111 38.2267 454.444 37.72C453.804 37.1867 452.937 36.92 451.844 36.92C450.831 36.92 450.044 37.1067 449.484 37.48C448.951 37.8533 448.684 38.3733 448.684 39.04C448.684 39.7867 449.057 40.36 449.804 40.76C450.551 41.1333 451.711 41.52 453.284 41.92C454.884 42.32 456.204 42.7333 457.244 43.16C458.284 43.5867 459.177 44.2533 459.924 45.16C460.697 46.04 461.097 47.2133 461.124 48.68C461.124 49.96 460.764 51.1067 460.044 52.12C459.351 53.1333 458.337 53.9333 457.004 54.52C455.697 55.08 454.164 55.36 452.404 55.36Z" fill="url(#paint0_linear_1036_466)"/>
<defs>
<linearGradient id="paint0_linear_1036_466" x1="477.154" y1="71" x2="78.9267" y2="71" gradientUnits="userSpaceOnUse">
<stop stop-color="#F11EDC"/>
<stop offset="0.402778" stop-color="#CF1CDE"/>
<stop offset="0.692407" stop-color="#4C13F1"/>
</linearGradient>
<clipPath id="clip0_1036_466">
<rect width="88" height="78" fill="white"/>
</clipPath>
</defs>
</svg>
